<?xml version="1.0" encoding="UTF-8" standalone="no"?>
<svg
   version="1.1"
   width="55"
   height="55"
   viewBox="0 0 55 55"
   style="overflow:visible"
   xml:space="preserve"
   id="svg4"
   sodipodi:docname="cesta_icon.svg"
   inkscape:version="1.1.1 (3bf5ae0d25, 2021-09-20)"
   xmlns:inkscape="http://www.inkscape.org/namespaces/inkscape"
   xmlns:sodipodi="http://sodipodi.sourceforge.net/DTD/sodipodi-0.dtd"
   xmlns:xlink="http://www.w3.org/1999/xlink"
   xmlns="http://www.w3.org/2000/svg"
   xmlns:svg="http://www.w3.org/2000/svg"><defs
   id="defs8"><filter
     inkscape:menu-tooltip="In and out glow with a possible offset and colorizable flood"
     inkscape:menu="Shadows and Glows"
     inkscape:label="Cutout Glow"
     style="color-interpolation-filters:sRGB"
     id="filter2381"
     x="-0.12738079"
     y="-0.63340205"
     width="1.3078369"
     height="2.5307217"><feOffset
       dy="3"
       dx="3"
       id="feOffset2371" /><feGaussianBlur
       stdDeviation="3"
       result="blur"
       id="feGaussianBlur2373" /><feFlood
       flood-color="rgb(0,0,0)"
       flood-opacity="1"
       result="flood"
       id="feFlood2375" /><feComposite
       in="flood"
       in2="SourceGraphic"
       operator="in"
       result="composite"
       id="feComposite2377" /><feBlend
       in="blur"
       in2="composite"
       mode="normal"
       id="feBlend2379" /></filter><clipPath
     clipPathUnits="userSpaceOnUse"
     id="clipPath4996"><rect
       style="opacity:0.5;fill:#ffff00;stroke:none;stroke-width:11.3386;stroke-linecap:round;stroke-linejoin:bevel"
       id="rect4998"
       width="25.399506"
       height="47.75108"
       x="51.307007"
       y="169.33006" /></clipPath><clipPath
     clipPathUnits="userSpaceOnUse"
     id="clipPath4996-3"><rect
       style="opacity:0.5;fill:#ffff00;stroke:none;stroke-width:11.3386;stroke-linecap:round;stroke-linejoin:bevel"
       id="rect4998-0"
       width="25.399506"
       height="47.75108"
       x="51.307007"
       y="169.33006" /></clipPath><clipPath
     clipPathUnits="userSpaceOnUse"
     id="clipPath12894"><rect
       style="opacity:0.5;fill:#b8df10;fill-opacity:1;stroke:none;stroke-width:12.3229;stroke-linecap:round;stroke-linejoin:bevel"
       id="rect12896"
       width="65"
       height="65"
       x="241.71434"
       y="94.139923" /></clipPath><linearGradient
     inkscape:collect="always"
     id="linearGradient36284"><stop
       style="stop-color:#000000;stop-opacity:0"
       offset="0"
       id="stop36280" /><stop
       style="stop-color:#ffd700;stop-opacity:1"
       offset="1"
       id="stop36282" /></linearGradient><radialGradient
     inkscape:collect="always"
     xlink:href="#linearGradient36284"
     id="radialGradient26730"
     cx="123.3296"
     cy="157.32816"
     fx="123.3296"
     fy="157.32816"
     r="57.276691"
     gradientTransform="matrix(2.6639573,-0.00836183,5.6054559e-4,0.17858175,-202.11418,77.629348)"
     gradientUnits="userSpaceOnUse" /><radialGradient
     inkscape:collect="always"
     xlink:href="#linearGradient36284"
     id="radialGradient26738"
     cx="123.3296"
     cy="157.32816"
     fx="123.3296"
     fy="157.32816"
     r="57.276691"
     gradientTransform="matrix(2.6639573,-0.00836183,5.6054559e-4,0.17858175,-202.11418,77.629348)"
     gradientUnits="userSpaceOnUse" /></defs><sodipodi:namedview
   id="namedview6"
   pagecolor="#ffffff"
   bordercolor="#666666"
   borderopacity="1.0"
   inkscape:pageshadow="2"
   inkscape:pageopacity="0.0"
   inkscape:pagecheckerboard="0"
   showgrid="false"
   inkscape:zoom="1"
   inkscape:cx="57"
   inkscape:cy="140.5"
   inkscape:window-width="1360"
   inkscape:window-height="705"
   inkscape:window-x="-8"
   inkscape:window-y="-8"
   inkscape:window-maximized="1"
   inkscape:current-layer="svg4"
   width="230px"
   showguides="true"
   inkscape:guide-bbox="true" />
		
<path
   id="rect12946"
   style="overflow:visible;fill:#b8df10;fill-opacity:1;stroke:none;stroke-width:10.0962;stroke-linecap:round;stroke-linejoin:bevel"
   d="m 3.6086105,4.8628429 c -1.1686612,0 -2.1086103,0.9399401 -2.1086103,2.1086104 0,1.1686704 0.9399491,2.1103781 2.1086103,2.1103781 h 6.3099042 l 0.1664293,0.7719258 5.29189,25.7725138 -1.556233,3.160263 c -0.182274,0.30598 -0.288586,0.662878 -0.288586,1.046333 v 0.04424 c 0,1.132185 0.912692,2.043109 2.044876,2.043109 h 31.788523 c 1.132177,0 2.043101,-0.910924 2.043101,-2.043109 v -0.04424 c 0,-1.132176 -0.910924,-2.043099 -2.043101,-2.043099 H 18.786722 l 0.640912,-1.409285 0.0513,-0.601953 -0.375345,-2.156417 30.954641,-3.818871 h 1.260569 c 1.209088,0 2.181201,-0.973879 2.181201,-2.182968 V 11.264808 c 0,-1.20909 -0.972113,-2.1829766 -2.181201,-2.1829766 H 16.079667 l -0.0036,-0.023022 -2.191825,-0.026558 c 0,0 -0.11727,-1.1046369 -0.237242,-1.6447499 -0.05255,-0.2372778 -0.138878,-0.5634903 -0.214206,-0.8338822 -0.07769,-0.9496845 -0.869117,-1.6907897 -1.839497,-1.6907897 -0.0494,0 -0.09854,0.00181 -0.146947,0.00544 -0.03898,-0.00181 -0.07733,-0.00544 -0.116854,-0.00544 z M 17.476587,41.930863 a 4.0374281,4.0977811 0 0 0 -4.038409,4.096832 4.0374281,4.0977811 0 0 0 4.038409,4.098599 4.0374281,4.0977811 0 0 0 4.036643,-4.098599 4.0374281,4.0977811 0 0 0 -4.036643,-4.096832 z m 27.872279,0.0091 a 4.0374281,4.0977811 0 0 0 -4.038411,4.098608 4.0374281,4.0977811 0 0 0 4.038411,4.098599 4.0374281,4.0977811 0 0 0 4.036633,-4.098599 4.0374281,4.0977811 0 0 0 -4.036633,-4.098608 z" /></svg>
