<?xml version="1.0" encoding="UTF-8" standalone="no"?>
<svg
   version="1.1"
   width="230"
   height="60"
   viewBox="0 0 230 60"
   style="overflow:visible"
   xml:space="preserve"
   id="svg4"
   sodipodi:docname="drugstore_logo.svg"
   inkscape:version="1.1.1 (3bf5ae0d25, 2021-09-20)"
   xmlns:inkscape="http://www.inkscape.org/namespaces/inkscape"
   xmlns:sodipodi="http://sodipodi.sourceforge.net/DTD/sodipodi-0.dtd"
   xmlns:xlink="http://www.w3.org/1999/xlink"
   xmlns="http://www.w3.org/2000/svg"
   xmlns:svg="http://www.w3.org/2000/svg"><defs
   id="defs8"><linearGradient
     inkscape:collect="always"
     id="linearGradient36284"><stop
       style="stop-color:#000000;stop-opacity:0"
       offset="0"
       id="stop36280" /><stop
       style="stop-color:#ffd700;stop-opacity:1"
       offset="1"
       id="stop36282" /></linearGradient><filter
     inkscape:menu-tooltip="In and out glow with a possible offset and colorizable flood"
     inkscape:menu="Shadows and Glows"
     inkscape:label="Cutout Glow"
     style="color-interpolation-filters:sRGB"
     id="filter2381"
     x="-0.12738079"
     y="-0.63340205"
     width="1.3078369"
     height="2.5307217"><feOffset
       dy="3"
       dx="3"
       id="feOffset2371" /><feGaussianBlur
       stdDeviation="3"
       result="blur"
       id="feGaussianBlur2373" /><feFlood
       flood-color="rgb(0,0,0)"
       flood-opacity="1"
       result="flood"
       id="feFlood2375" /><feComposite
       in="flood"
       in2="SourceGraphic"
       operator="in"
       result="composite"
       id="feComposite2377" /><feBlend
       in="blur"
       in2="composite"
       mode="normal"
       id="feBlend2379" /></filter><radialGradient
     inkscape:collect="always"
     xlink:href="#linearGradient36284"
     id="radialGradient36286"
     cx="123.3296"
     cy="157.32816"
     fx="123.3296"
     fy="157.32816"
     r="57.276691"
     gradientTransform="matrix(2.6639573,-0.00836183,5.6054559e-4,0.17858175,-202.11418,77.629348)"
     gradientUnits="userSpaceOnUse" /></defs><sodipodi:namedview
   id="namedview6"
   pagecolor="#ffffff"
   bordercolor="#666666"
   borderopacity="1.0"
   inkscape:pageshadow="2"
   inkscape:pageopacity="0.0"
   inkscape:pagecheckerboard="0"
   showgrid="false"
   inkscape:zoom="1.0439771"
   inkscape:cx="81.419414"
   inkscape:cy="189.1804"
   inkscape:window-width="1360"
   inkscape:window-height="705"
   inkscape:window-x="-8"
   inkscape:window-y="-8"
   inkscape:window-maximized="1"
   inkscape:current-layer="svg4"
   width="230px" />
		
<g
   id="g14509"
   transform="matrix(0.98373425,0,0,0.99058082,-48.729591,-65.642633)"><path
     style="overflow:visible;fill:#ff0051;fill-opacity:1;stroke:#ffd700;stroke-width:0.518468;stroke-linecap:round;stroke-opacity:1"
     d="m 94.5757,121.01644 c 0.57298,-0.0752 1.147176,-0.15886 1.712213,-0.25761 a 33.367986,25.281556 0 0 1 -1.712213,0.25761 z"
     id="path1723-6" /><path
     style="overflow:visible;fill:#ff0051;fill-opacity:1;stroke:#ffd700;stroke-width:0.518468;stroke-linecap:round;stroke-opacity:1"
     d="m 83.559572,121.26406 a 33.367986,25.281556 0 0 0 4.684715,0.26649 33.367986,25.281556 0 0 0 6.331413,-0.51411 c -1.614542,0.21194 -3.217504,0.33656 -4.565901,0.38753 -1.894963,0.0716 -4.178241,0.0359 -6.450227,-0.13991 z"
     id="path1721-4" /><path
     style="overflow:visible;fill:#ff0051;fill-opacity:1;stroke:#ffd700;stroke-width:0.518468;stroke-linecap:round;stroke-opacity:1"
     d="m 74.553242,119.26092 c 1.974248,1.11173 5.474078,1.72985 9.00633,2.00314 a 33.367986,25.281556 0 0 1 -9.00633,-2.00314 z"
     id="path1719-0" /><path
     style="overflow:visible;fill:#ff0051;fill-opacity:1;stroke:#ffd700;stroke-width:0.518468;stroke-linecap:round;stroke-opacity:1"
     d="m 97.230628,120.57895 c -0.305663,0.0625 -1.091422,0.20786 -1.404777,0.26275 0.31053,-0.0559 1.096487,-0.20017 1.404777,-0.26275 z"
     id="path1713-7"
     sodipodi:nodetypes="ccc" /><path
     style="overflow:visible;fill:#ff0051;fill-opacity:1;stroke:#ffd700;stroke-width:0.518468;stroke-linecap:round;stroke-opacity:1"
     d="m 99.830041,119.76504 c -0.774849,0.22383 -1.804717,0.63443 -2.599413,0.81391 0.461226,-0.0944 0.984233,-0.2619 1.482419,-0.43209 0.404068,-0.13804 0.791802,-0.27784 1.116994,-0.38182 z"
     id="path1711-1"
     sodipodi:nodetypes="ccsc" /><path
     style="overflow:visible;fill:#b8df10;fill-opacity:1;stroke:#ffd700;stroke-width:0.518468;stroke-linecap:round;stroke-opacity:1"
     d="m 101.15806,74.237062 a 33.367986,25.281556 0 0 1 18.34799,22.516377 33.367986,25.281556 0 0 1 -19.676011,23.011601 c 1.001031,-0.56369 1.614021,-1.25158 1.632261,-2.08752 0.0596,-2.73084 -5.964974,-3.47926 -8.749831,-4.5337 -0.241835,-1.55743 -2.382961,-2.94486 -2.460609,-5.23879 0.645801,-0.49785 2.067696,-0.42364 2.187454,-1.30914 -0.528374,-0.92026 -2.649874,-0.66685 -3.281184,-1.51124 V 91.484664 c 11.35196,-0.26929 9.412217,-10.845522 11.99993,-17.247602 z"
     id="path1717-6" /><path
     style="fill:#b8df10;fill-opacity:1;stroke:#ffd700;stroke-width:0.518468;stroke-linecap:round;stroke-opacity:1"
     d="M 73.225221,73.732941 A 33.367986,25.281556 0 0 0 54.877228,96.249318 33.367986,25.281556 0 0 0 74.553241,119.26092 c -1.001033,-0.56369 -1.61402,-1.25158 -1.632265,-2.08752 -0.0596,-2.73084 5.964978,-3.47926 8.749833,-4.5337 0.241836,-1.55743 2.382961,-2.94486 2.460609,-5.23879 -0.645801,-0.49785 -2.067696,-0.42365 -2.187454,-1.30914 0.528374,-0.92026 2.649874,-0.66685 3.281184,-1.51124 V 90.980543 C 73.873187,90.711253 75.812932,80.135021 73.225221,73.732941 Z"
     id="path1717-0" /><path
     style="fill:none;fill-opacity:1;stroke:#ffd700;stroke-width:0.568517px;stroke-linecap:butt;stroke-linejoin:miter;stroke-opacity:1"
     d="M 73.225221,73.732941 C 82.304122,70.903555 91.6028,70.703027 101.15806,74.237062"
     id="path3904"
     sodipodi:nodetypes="cc" /><text
     xml:space="preserve"
     style="font-size:28.2702px;line-height:1.25;font-family:sans-serif;fill:#b8df10;fill-opacity:1;stroke:url(#radialGradient36286);stroke-width:0.30535;stroke-linecap:round;stroke-linejoin:bevel;stroke-miterlimit:4;stroke-dasharray:none;stroke-dashoffset:0"
     x="122.68534"
     y="106.44941"
     id="text1800"><tspan
       sodipodi:role="line"
       id="tspan1798"
       x="122.68534"
       y="106.44941"
       style="font-style:normal;font-variant:normal;font-weight:normal;font-stretch:normal;font-size:28.2702px;font-family:'Nirmala UI';-inkscape-font-specification:'Nirmala UI, Normal';font-variant-ligatures:normal;font-variant-caps:normal;font-variant-numeric:normal;font-variant-east-asian:normal;fill:#b8df10;fill-opacity:1;stroke:url(#radialGradient36286);stroke-width:0.30535;stroke-linecap:round;stroke-linejoin:bevel;stroke-miterlimit:4;stroke-dasharray:none;stroke-dashoffset:0">DRUGSTORE<tspan
   style="font-size:12.214px;baseline-shift:super;fill:#b8df10;fill-opacity:1;stroke:url(#radialGradient36286);stroke-width:0.30535"
   id="tspan57194" /></tspan></text></g></svg>
