<?xml version="1.0" encoding="UTF-8" standalone="no"?>
<svg
   version="1.1"
   width="55"
   height="55"
   viewBox="0 0 55 55"
   style="overflow:visible"
   xml:space="preserve"
   id="svg4"
   sodipodi:docname="icons.svg"
   inkscape:version="1.1.1 (3bf5ae0d25, 2021-09-20)"
   xmlns:inkscape="http://www.inkscape.org/namespaces/inkscape"
   xmlns:sodipodi="http://sodipodi.sourceforge.net/DTD/sodipodi-0.dtd"
   xmlns:xlink="http://www.w3.org/1999/xlink"
   xmlns="http://www.w3.org/2000/svg"
   xmlns:svg="http://www.w3.org/2000/svg"><defs
   id="defs8"><filter
     inkscape:menu-tooltip="In and out glow with a possible offset and colorizable flood"
     inkscape:menu="Shadows and Glows"
     inkscape:label="Cutout Glow"
     style="color-interpolation-filters:sRGB"
     id="filter2381"
     x="-0.12738079"
     y="-0.63340205"
     width="1.3078369"
     height="2.5307217"><feOffset
       dy="3"
       dx="3"
       id="feOffset2371" /><feGaussianBlur
       stdDeviation="3"
       result="blur"
       id="feGaussianBlur2373" /><feFlood
       flood-color="rgb(0,0,0)"
       flood-opacity="1"
       result="flood"
       id="feFlood2375" /><feComposite
       in="flood"
       in2="SourceGraphic"
       operator="in"
       result="composite"
       id="feComposite2377" /><feBlend
       in="blur"
       in2="composite"
       mode="normal"
       id="feBlend2379" /></filter><clipPath
     clipPathUnits="userSpaceOnUse"
     id="clipPath4996"><rect
       style="opacity:0.5;fill:#ffff00;stroke:none;stroke-width:11.3386;stroke-linecap:round;stroke-linejoin:bevel"
       id="rect4998"
       width="25.399506"
       height="47.75108"
       x="51.307007"
       y="169.33006" /></clipPath><clipPath
     clipPathUnits="userSpaceOnUse"
     id="clipPath4996-3"><rect
       style="opacity:0.5;fill:#ffff00;stroke:none;stroke-width:11.3386;stroke-linecap:round;stroke-linejoin:bevel"
       id="rect4998-0"
       width="25.399506"
       height="47.75108"
       x="51.307007"
       y="169.33006" /></clipPath><clipPath
     clipPathUnits="userSpaceOnUse"
     id="clipPath12894"><rect
       style="opacity:0.5;fill:#b8df10;fill-opacity:1;stroke:none;stroke-width:12.3229;stroke-linecap:round;stroke-linejoin:bevel"
       id="rect12896"
       width="65"
       height="65"
       x="241.71434"
       y="94.139923" /></clipPath><linearGradient
     inkscape:collect="always"
     id="linearGradient36284"><stop
       style="stop-color:#000000;stop-opacity:0"
       offset="0"
       id="stop36280" /><stop
       style="stop-color:#ffd700;stop-opacity:1"
       offset="1"
       id="stop36282" /></linearGradient><radialGradient
     inkscape:collect="always"
     xlink:href="#linearGradient36284"
     id="radialGradient26730"
     cx="123.3296"
     cy="157.32816"
     fx="123.3296"
     fy="157.32816"
     r="57.276691"
     gradientTransform="matrix(2.6639573,-0.00836183,5.6054559e-4,0.17858175,-202.11418,77.629348)"
     gradientUnits="userSpaceOnUse" /><radialGradient
     inkscape:collect="always"
     xlink:href="#linearGradient36284"
     id="radialGradient26738"
     cx="123.3296"
     cy="157.32816"
     fx="123.3296"
     fy="157.32816"
     r="57.276691"
     gradientTransform="matrix(2.6639573,-0.00836183,5.6054559e-4,0.17858175,-202.11418,77.629348)"
     gradientUnits="userSpaceOnUse" /><radialGradient
     inkscape:collect="always"
     xlink:href="#linearGradient36284"
     id="radialGradient26960"
     cx="123.3296"
     cy="157.32816"
     fx="123.3296"
     fy="157.32816"
     r="57.276691"
     gradientTransform="matrix(2.6639573,-0.00836183,5.6054559e-4,0.17858175,-202.11418,77.629348)"
     gradientUnits="userSpaceOnUse" /><radialGradient
     inkscape:collect="always"
     xlink:href="#linearGradient36284"
     id="radialGradient26968"
     cx="123.3296"
     cy="157.32816"
     fx="123.3296"
     fy="157.32816"
     r="57.276691"
     gradientTransform="matrix(2.6639573,-0.00836183,5.6054559e-4,0.17858175,-202.11418,77.629348)"
     gradientUnits="userSpaceOnUse" /><clipPath
     clipPathUnits="userSpaceOnUse"
     id="clipPath4996-1"><rect
       style="opacity:0.5;fill:#ffff00;stroke:none;stroke-width:11.3386;stroke-linecap:round;stroke-linejoin:bevel"
       id="rect4998-9"
       width="25.399506"
       height="47.75108"
       x="51.307007"
       y="169.33006" /></clipPath><clipPath
     clipPathUnits="userSpaceOnUse"
     id="clipPath4996-3-1"><rect
       style="opacity:0.5;fill:#ffff00;stroke:none;stroke-width:11.3386;stroke-linecap:round;stroke-linejoin:bevel"
       id="rect4998-0-5"
       width="25.399506"
       height="47.75108"
       x="51.307007"
       y="169.33006" /></clipPath><clipPath
     clipPathUnits="userSpaceOnUse"
     id="clipPath4996-1-6"><rect
       style="opacity:0.5;fill:#ffff00;stroke:none;stroke-width:11.3386;stroke-linecap:round;stroke-linejoin:bevel"
       id="rect4998-9-3"
       width="25.399506"
       height="47.75108"
       x="51.307007"
       y="169.33006" /></clipPath><clipPath
     clipPathUnits="userSpaceOnUse"
     id="clipPath4996-3-1-2"><rect
       style="opacity:0.5;fill:#ffff00;stroke:none;stroke-width:11.3386;stroke-linecap:round;stroke-linejoin:bevel"
       id="rect4998-0-5-9"
       width="25.399506"
       height="47.75108"
       x="51.307007"
       y="169.33006" /></clipPath><radialGradient
     inkscape:collect="always"
     xlink:href="#linearGradient36284"
     id="radialGradient36286"
     cx="123.3296"
     cy="157.32816"
     fx="123.3296"
     fy="157.32816"
     r="57.276691"
     gradientTransform="matrix(2.6639573,-0.00836183,5.6054559e-4,0.17858175,-202.11418,77.629348)"
     gradientUnits="userSpaceOnUse" /><radialGradient
     inkscape:collect="always"
     xlink:href="#linearGradient36284"
     id="radialGradient14110"
     cx="123.3296"
     cy="157.32816"
     fx="123.3296"
     fy="157.32816"
     r="57.276691"
     gradientTransform="matrix(2.6639573,-0.00836183,5.6054559e-4,0.17858175,-202.11418,77.629348)"
     gradientUnits="userSpaceOnUse" /><radialGradient
     inkscape:collect="always"
     xlink:href="#linearGradient36284"
     id="radialGradient14118"
     cx="123.3296"
     cy="157.32816"
     fx="123.3296"
     fy="157.32816"
     r="57.276691"
     gradientTransform="matrix(2.6639573,-0.00836183,5.6054559e-4,0.17858175,-202.11418,77.629348)"
     gradientUnits="userSpaceOnUse" /></defs><sodipodi:namedview
   id="namedview6"
   pagecolor="#ffffff"
   bordercolor="#666666"
   borderopacity="1.0"
   inkscape:pageshadow="2"
   inkscape:pageopacity="0.0"
   inkscape:pagecheckerboard="0"
   showgrid="false"
   inkscape:zoom="1.4142136"
   inkscape:cx="4.2426407"
   inkscape:cy="-1.0606602"
   inkscape:window-width="1360"
   inkscape:window-height="705"
   inkscape:window-x="-8"
   inkscape:window-y="-8"
   inkscape:window-maximized="1"
   inkscape:current-layer="svg4"
   width="230px"
   showguides="true"
   inkscape:guide-bbox="true" />
		
<g
   id="g14094"
   transform="matrix(1.3982065,0,0,1.3982065,-0.18307721,-4.5009729)"><path
     style="fill:#000000;fill-opacity:0;stroke:#6f3cbd;stroke-width:3.33988;stroke-linecap:butt;stroke-linejoin:miter;stroke-miterlimit:4;stroke-dasharray:none;stroke-opacity:1"
     d="M 1.767767,6.9782768 H 37.830214"
     id="path5065" /><path
     style="overflow:visible;fill:#000000;fill-opacity:0;stroke:#6f3cbd;stroke-width:3.33988;stroke-linecap:butt;stroke-linejoin:miter;stroke-miterlimit:4;stroke-dasharray:none;stroke-opacity:1"
     d="M 1.767767,16.793787 H 37.830214"
     id="path5065-7" /><path
     style="overflow:visible;fill:#000000;fill-opacity:0;stroke:#6f3cbd;stroke-width:3.33988;stroke-linecap:butt;stroke-linejoin:miter;stroke-miterlimit:4;stroke-dasharray:none;stroke-opacity:1"
     d="M 1.767767,26.609296 H 37.830214"
     id="path5065-4" /><path
     sodipodi:type="star"
     style="fill:none;fill-opacity:1;stroke:#6f3cbd;stroke-width:1.5;stroke-linecap:round;stroke-linejoin:miter;stroke-miterlimit:4;stroke-dasharray:none;stroke-opacity:1;paint-order:fill markers stroke"
     id="path12221"
     inkscape:flatsided="true"
     sodipodi:sides="3"
     sodipodi:cx="30.847534"
     sodipodi:cy="46.56242"
     sodipodi:r1="4.7929449"
     sodipodi:r2="2.3964725"
     sodipodi:arg1="0.52359878"
     sodipodi:arg2="1.5707963"
     inkscape:rounded="0"
     inkscape:randomized="0"
     d="m 34.998346,48.958892 -8.301624,0 4.150812,-7.189417 z"
     inkscape:transform-center-y="1.2791165"
     transform="rotate(60,36.052785,30.799407)"
     inkscape:transform-center-x="0.14008911" /></g><path
   id="rect12946"
   style="overflow:visible;fill:#b8df10;fill-opacity:1;stroke:none;stroke-width:10.0962;stroke-linecap:round;stroke-linejoin:bevel"
   d="m -0.46435624,-77.497598 c -1.16865996,0 -2.10860996,0.93994 -2.10860996,2.10861 0,1.168671 0.93995,2.110378 2.10860996,2.110378 H 5.8455538 l 0.16643,0.771926 5.2918902,25.772514 -1.5562402,3.160263 c -0.18227,0.30598 -0.28858,0.662878 -0.28858,1.046333 v 0.04424 c 0,1.132185 0.9126902,2.043109 2.0448702,2.043109 h 31.78853 c 1.13217,0 2.0431,-0.910924 2.0431,-2.043109 v -0.04424 c 0,-1.132176 -0.91093,-2.043099 -2.0431,-2.043099 h -28.5787 l 0.64092,-1.409285 0.0513,-0.601953 -0.37535,-2.156417 30.95464,-3.818871 h 1.26057 c 1.20909,0 2.1812,-0.973879 2.1812,-2.182968 v -16.355466 c 0,-1.20909 -0.97211,-2.182977 -2.1812,-2.182977 h -35.23913 l -0.004,-0.02302 -2.1918302,-0.02656 c 0,0 -0.11727,-1.104637 -0.23724,-1.64475 -0.0526,-0.237277 -0.13888,-0.56349 -0.2142,-0.833882 -0.0777,-0.949684 -0.86912,-1.69079 -1.8395,-1.69079 -0.0494,0 -0.0985,0.0018 -0.14695,0.0054 -0.039,-0.0018 -0.0773,-0.0054 -0.11685,-0.0054 z m 13.86798024,37.06802 a 4.0374281,4.0977811 0 0 0 -4.0384102,4.096832 4.0374281,4.0977811 0 0 0 4.0384102,4.098599 4.0374281,4.0977811 0 0 0 4.03664,-4.098599 4.0374281,4.0977811 0 0 0 -4.03664,-4.096832 z m 27.87228,0.0091 a 4.0374281,4.0977811 0 0 0 -4.03841,4.098608 4.0374281,4.0977811 0 0 0 4.03841,4.098599 4.0374281,4.0977811 0 0 0 4.03663,-4.098599 4.0374281,4.0977811 0 0 0 -4.03663,-4.098608 z" /><g
   id="g26558"
   transform="translate(-57.758956,-111.18982)"
   style="overflow:visible"><path
     style="fill:#b8df10;fill-opacity:1;stroke:none;stroke-width:1px;stroke-linecap:butt;stroke-linejoin:miter;stroke-opacity:1"
     d="m 24.722189,216.91181 c 0,0 0.579541,-7.91392 3.047941,-10.6678 3.98769,-4.44889 12.212059,-2.71243 16.594345,-6.7732 0.925761,-0.85784 1.711469,-2.12462 1.693301,-3.3866 -0.05063,-3.51706 -4.14347,-5.88417 -4.988865,-9.29849 -0.896543,-3.6209 0.07829,-11.19045 0.07829,-11.19045 0,0 0.957572,-2.47293 1.860304,-3.39505 0.866362,-0.88497 2.033739,-1.49712 3.219598,-1.85418 2.599295,-0.78265 5.479877,-1.10561 8.127843,-0.50799 1.583649,0.35742 3.08637,1.23967 4.25927,2.36217 0.76783,0.73483 1.667282,2.71773 1.667282,2.71773 0,0 0.540755,8.00524 -0.320423,11.86777 -0.7092,3.18088 -3.874655,5.70107 -3.912828,8.95983 -0.01572,1.34155 0.575285,2.77658 1.52397,3.72526 3.79474,3.79474 11.200457,2.20927 14.901045,6.09588 2.806651,2.94774 4.063922,11.51445 4.063922,11.51445 z"
     id="path912"
     sodipodi:nodetypes="cssascasaacsasscc"
     clip-path="url(#clipPath4996-1-6)"
     transform="matrix(1,0,0,1.0514774,112.2632,-85.835896)" /><path
     style="overflow:visible;fill:#b8df10;fill-opacity:1;stroke:none;stroke-width:1px;stroke-linecap:butt;stroke-linejoin:miter;stroke-opacity:1"
     d="m 24.722189,216.91181 c 0,0 0.579541,-7.91392 3.047941,-10.6678 3.98769,-4.44889 12.212059,-2.71243 16.594345,-6.7732 0.925761,-0.85784 1.711469,-2.12462 1.693301,-3.3866 -0.05063,-3.51706 -4.14347,-5.88417 -4.988865,-9.29849 -0.896543,-3.6209 0.07829,-11.19045 0.07829,-11.19045 0,0 0.957572,-2.47293 1.860304,-3.39505 0.866362,-0.88497 2.033739,-1.49712 3.219598,-1.85418 2.599295,-0.78265 5.479877,-1.10561 8.127843,-0.50799 1.583649,0.35742 3.08637,1.23967 4.25927,2.36217 0.76783,0.73483 1.667282,2.71773 1.667282,2.71773 0,0 0.540755,8.00524 -0.320423,11.86777 -0.7092,3.18088 -3.874655,5.70107 -3.912828,8.95983 -0.01572,1.34155 0.575285,2.77658 1.52397,3.72526 3.79474,3.79474 11.200457,2.20927 14.901045,6.09588 2.806651,2.94774 4.063922,11.51445 4.063922,11.51445 z"
     id="path912-0"
     sodipodi:nodetypes="cssascasaacsasscc"
     clip-path="url(#clipPath4996-3-1-2)"
     transform="matrix(-1,0,0,1.0514774,215.12721,-85.835903)" /></g><g
   id="g14509"
   transform="matrix(0.98373425,0,0,0.99058082,-44.882456,12.009312)"
   style="overflow:visible"><path
     style="overflow:visible;fill:#ff0051;fill-opacity:1;stroke:#ffd700;stroke-width:0.518468;stroke-linecap:round;stroke-opacity:1"
     d="m 94.5757,121.01644 c 0.57298,-0.0752 1.147176,-0.15886 1.712213,-0.25761 a 33.367986,25.281556 0 0 1 -1.712213,0.25761 z"
     id="path1723-6" /><path
     style="overflow:visible;fill:#ff0051;fill-opacity:1;stroke:#ffd700;stroke-width:0.518468;stroke-linecap:round;stroke-opacity:1"
     d="m 83.559572,121.26406 a 33.367986,25.281556 0 0 0 4.684715,0.26649 33.367986,25.281556 0 0 0 6.331413,-0.51411 c -1.614542,0.21194 -3.217504,0.33656 -4.565901,0.38753 -1.894963,0.0716 -4.178241,0.0359 -6.450227,-0.13991 z"
     id="path1721-4" /><path
     style="overflow:visible;fill:#ff0051;fill-opacity:1;stroke:#ffd700;stroke-width:0.518468;stroke-linecap:round;stroke-opacity:1"
     d="m 74.553242,119.26092 c 1.974248,1.11173 5.474078,1.72985 9.00633,2.00314 a 33.367986,25.281556 0 0 1 -9.00633,-2.00314 z"
     id="path1719-0" /><path
     style="overflow:visible;fill:#ff0051;fill-opacity:1;stroke:#ffd700;stroke-width:0.518468;stroke-linecap:round;stroke-opacity:1"
     d="m 97.230628,120.57895 c -0.305663,0.0625 -1.091422,0.20786 -1.404777,0.26275 0.31053,-0.0559 1.096487,-0.20017 1.404777,-0.26275 z"
     id="path1713-7"
     sodipodi:nodetypes="ccc" /><path
     style="overflow:visible;fill:#ff0051;fill-opacity:1;stroke:#ffd700;stroke-width:0.518468;stroke-linecap:round;stroke-opacity:1"
     d="m 99.830041,119.76504 c -0.774849,0.22383 -1.804717,0.63443 -2.599413,0.81391 0.461226,-0.0944 0.984233,-0.2619 1.482419,-0.43209 0.404068,-0.13804 0.791802,-0.27784 1.116994,-0.38182 z"
     id="path1711-1"
     sodipodi:nodetypes="ccsc" /><path
     style="overflow:visible;fill:#b8df10;fill-opacity:1;stroke:#ffd700;stroke-width:0.518468;stroke-linecap:round;stroke-opacity:1"
     d="m 101.15806,74.237062 a 33.367986,25.281556 0 0 1 18.34799,22.516377 33.367986,25.281556 0 0 1 -19.676011,23.011601 c 1.001031,-0.56369 1.614021,-1.25158 1.632261,-2.08752 0.0596,-2.73084 -5.964974,-3.47926 -8.749831,-4.5337 -0.241835,-1.55743 -2.382961,-2.94486 -2.460609,-5.23879 0.645801,-0.49785 2.067696,-0.42364 2.187454,-1.30914 -0.528374,-0.92026 -2.649874,-0.66685 -3.281184,-1.51124 V 91.484664 c 11.35196,-0.26929 9.412217,-10.845522 11.99993,-17.247602 z"
     id="path1717-6" /><path
     style="fill:#b8df10;fill-opacity:1;stroke:#ffd700;stroke-width:0.518468;stroke-linecap:round;stroke-opacity:1"
     d="M 73.225221,73.732941 A 33.367986,25.281556 0 0 0 54.877228,96.249318 33.367986,25.281556 0 0 0 74.553241,119.26092 c -1.001033,-0.56369 -1.61402,-1.25158 -1.632265,-2.08752 -0.0596,-2.73084 5.964978,-3.47926 8.749833,-4.5337 0.241836,-1.55743 2.382961,-2.94486 2.460609,-5.23879 -0.645801,-0.49785 -2.067696,-0.42365 -2.187454,-1.30914 0.528374,-0.92026 2.649874,-0.66685 3.281184,-1.51124 V 90.980543 C 73.873187,90.711253 75.812932,80.135021 73.225221,73.732941 Z"
     id="path1717-0" /><path
     style="fill:none;fill-opacity:1;stroke:#ffd700;stroke-width:0.568517px;stroke-linecap:butt;stroke-linejoin:miter;stroke-opacity:1"
     d="M 73.225221,73.732941 C 82.304122,70.903555 91.6028,70.703027 101.15806,74.237062"
     id="path3904"
     sodipodi:nodetypes="cc" /><text
     xml:space="preserve"
     style="font-size:28.2702px;line-height:1.25;font-family:sans-serif;fill:#b8df10;fill-opacity:1;stroke:url(#radialGradient36286);stroke-width:0.30535;stroke-linecap:round;stroke-linejoin:bevel;stroke-miterlimit:4;stroke-dasharray:none;stroke-dashoffset:0"
     x="122.68534"
     y="106.44941"
     id="text1800"><tspan
       sodipodi:role="line"
       id="tspan1798"
       x="122.68534"
       y="106.44941"
       style="font-style:normal;font-variant:normal;font-weight:normal;font-stretch:normal;font-size:28.2702px;font-family:'Nirmala UI';-inkscape-font-specification:'Nirmala UI, Normal';font-variant-ligatures:normal;font-variant-caps:normal;font-variant-numeric:normal;font-variant-east-asian:normal;fill:#b8df10;fill-opacity:1;stroke:url(#radialGradient36286);stroke-width:0.30535;stroke-linecap:round;stroke-linejoin:bevel;stroke-miterlimit:4;stroke-dasharray:none;stroke-dashoffset:0">DRUGSTORE<tspan
   style="font-size:12.214px;baseline-shift:super;fill:#b8df10;fill-opacity:1;stroke:url(#radialGradient36286);stroke-width:0.30535"
   id="tspan57194" /></tspan></text></g></svg>
