<?xml version="1.0" encoding="UTF-8" standalone="no"?>
<svg
   version="1.1"
   width="55"
   height="55"
   viewBox="0 0 55 55"
   style="overflow:visible"
   xml:space="preserve"
   id="svg4"
   sodipodi:docname="user_icon.svg"
   inkscape:version="1.1.1 (3bf5ae0d25, 2021-09-20)"
   xmlns:inkscape="http://www.inkscape.org/namespaces/inkscape"
   xmlns:sodipodi="http://sodipodi.sourceforge.net/DTD/sodipodi-0.dtd"
   xmlns="http://www.w3.org/2000/svg"
   xmlns:svg="http://www.w3.org/2000/svg"><defs
   id="defs8"><filter
     inkscape:menu-tooltip="In and out glow with a possible offset and colorizable flood"
     inkscape:menu="Shadows and Glows"
     inkscape:label="Cutout Glow"
     style="color-interpolation-filters:sRGB"
     id="filter2381"
     x="-0.12738079"
     y="-0.63340205"
     width="1.3078369"
     height="2.5307217"><feOffset
       dy="3"
       dx="3"
       id="feOffset2371" /><feGaussianBlur
       stdDeviation="3"
       result="blur"
       id="feGaussianBlur2373" /><feFlood
       flood-color="rgb(0,0,0)"
       flood-opacity="1"
       result="flood"
       id="feFlood2375" /><feComposite
       in="flood"
       in2="SourceGraphic"
       operator="in"
       result="composite"
       id="feComposite2377" /><feBlend
       in="blur"
       in2="composite"
       mode="normal"
       id="feBlend2379" /></filter><clipPath
     clipPathUnits="userSpaceOnUse"
     id="clipPath4996"><rect
       style="opacity:0.5;fill:#ffff00;stroke:none;stroke-width:11.3386;stroke-linecap:round;stroke-linejoin:bevel"
       id="rect4998"
       width="25.399506"
       height="47.75108"
       x="51.307007"
       y="169.33006" /></clipPath><clipPath
     clipPathUnits="userSpaceOnUse"
     id="clipPath4996-3"><rect
       style="opacity:0.5;fill:#ffff00;stroke:none;stroke-width:11.3386;stroke-linecap:round;stroke-linejoin:bevel"
       id="rect4998-0"
       width="25.399506"
       height="47.75108"
       x="51.307007"
       y="169.33006" /></clipPath><clipPath
     clipPathUnits="userSpaceOnUse"
     id="clipPath12894"><rect
       style="opacity:0.5;fill:#b8df10;fill-opacity:1;stroke:none;stroke-width:12.3229;stroke-linecap:round;stroke-linejoin:bevel"
       id="rect12896"
       width="65"
       height="65"
       x="241.71434"
       y="94.139923" /></clipPath></defs><sodipodi:namedview
   id="namedview6"
   pagecolor="#ffffff"
   bordercolor="#666666"
   borderopacity="1.0"
   inkscape:pageshadow="2"
   inkscape:pageopacity="0.0"
   inkscape:pagecheckerboard="0"
   showgrid="false"
   inkscape:zoom="1"
   inkscape:cx="108"
   inkscape:cy="212.5"
   inkscape:window-width="1360"
   inkscape:window-height="705"
   inkscape:window-x="-8"
   inkscape:window-y="-8"
   inkscape:window-maximized="1"
   inkscape:current-layer="svg4"
   width="230px"
   showguides="true"
   inkscape:guide-bbox="true" />
		
<g
   id="g26558"
   transform="translate(-136.1952,-89.920018)"><path
     style="fill:#b8df10;fill-opacity:1;stroke:none;stroke-width:1px;stroke-linecap:butt;stroke-linejoin:miter;stroke-opacity:1"
     d="m 24.722189,216.91181 c 0,0 0.579541,-7.91392 3.047941,-10.6678 3.98769,-4.44889 12.212059,-2.71243 16.594345,-6.7732 0.925761,-0.85784 1.711469,-2.12462 1.693301,-3.3866 -0.05063,-3.51706 -4.14347,-5.88417 -4.988865,-9.29849 -0.896543,-3.6209 0.07829,-11.19045 0.07829,-11.19045 0,0 0.957572,-2.47293 1.860304,-3.39505 0.866362,-0.88497 2.033739,-1.49712 3.219598,-1.85418 2.599295,-0.78265 5.479877,-1.10561 8.127843,-0.50799 1.583649,0.35742 3.08637,1.23967 4.25927,2.36217 0.76783,0.73483 1.667282,2.71773 1.667282,2.71773 0,0 0.540755,8.00524 -0.320423,11.86777 -0.7092,3.18088 -3.874655,5.70107 -3.912828,8.95983 -0.01572,1.34155 0.575285,2.77658 1.52397,3.72526 3.79474,3.79474 11.200457,2.20927 14.901045,6.09588 2.806651,2.94774 4.063922,11.51445 4.063922,11.51445 z"
     id="path912"
     sodipodi:nodetypes="cssascasaacsasscc"
     clip-path="url(#clipPath4996)"
     transform="matrix(1,0,0,1.0514774,112.2632,-85.835896)" /><path
     style="overflow:visible;fill:#b8df10;fill-opacity:1;stroke:none;stroke-width:1px;stroke-linecap:butt;stroke-linejoin:miter;stroke-opacity:1"
     d="m 24.722189,216.91181 c 0,0 0.579541,-7.91392 3.047941,-10.6678 3.98769,-4.44889 12.212059,-2.71243 16.594345,-6.7732 0.925761,-0.85784 1.711469,-2.12462 1.693301,-3.3866 -0.05063,-3.51706 -4.14347,-5.88417 -4.988865,-9.29849 -0.896543,-3.6209 0.07829,-11.19045 0.07829,-11.19045 0,0 0.957572,-2.47293 1.860304,-3.39505 0.866362,-0.88497 2.033739,-1.49712 3.219598,-1.85418 2.599295,-0.78265 5.479877,-1.10561 8.127843,-0.50799 1.583649,0.35742 3.08637,1.23967 4.25927,2.36217 0.76783,0.73483 1.667282,2.71773 1.667282,2.71773 0,0 0.540755,8.00524 -0.320423,11.86777 -0.7092,3.18088 -3.874655,5.70107 -3.912828,8.95983 -0.01572,1.34155 0.575285,2.77658 1.52397,3.72526 3.79474,3.79474 11.200457,2.20927 14.901045,6.09588 2.806651,2.94774 4.063922,11.51445 4.063922,11.51445 z"
     id="path912-0"
     sodipodi:nodetypes="cssascasaacsasscc"
     clip-path="url(#clipPath4996-3)"
     transform="matrix(-1,0,0,1.0514774,215.12721,-85.835903)" /></g></svg>
